<mxfile host="app.diagrams.net" modified="2023-10-15T01:07:33.208Z" agent="Mozilla/5.0 (Macintosh; Intel Mac OS X 10_15_7) AppleWebKit/537.36 (KHTML, like Gecko) Chrome/117.0.0.0 Safari/537.36 Edg/117.0.2045.55" etag="bzUoDjEjjxuh2YV9IJ7m" version="22.0.4" type="github">
  <diagram id="C5RBs43oDa-KdzZeNtuy" name="Page-1">
    <mxGraphModel dx="3814" dy="2495" grid="1" gridSize="10" guides="1" tooltips="1" connect="1" arrows="1" fold="1" page="1" pageScale="1" pageWidth="827" pageHeight="1169" math="0" shadow="0">
      <root>
        <mxCell id="WIyWlLk6GJQsqaUBKTNV-0" />
        <mxCell id="WIyWlLk6GJQsqaUBKTNV-1" parent="WIyWlLk6GJQsqaUBKTNV-0" />
        <mxCell id="70RoOoR1F2DfWVXdEjB7-13" value="&lt;font style=&quot;font-size: 18px;&quot;&gt;func(context.Context) any&lt;/font&gt;" style="rounded=1;whiteSpace=wrap;html=1;fontSize=12;glass=0;strokeWidth=1;shadow=0;fillColor=#00FF00;" vertex="1" parent="WIyWlLk6GJQsqaUBKTNV-1">
          <mxGeometry x="-325" y="840" width="229.5" height="40" as="geometry" />
        </mxCell>
        <mxCell id="70RoOoR1F2DfWVXdEjB7-23" value="&lt;font style=&quot;font-size: 18px;&quot;&gt;func() (any,error)&lt;/font&gt;" style="rounded=1;whiteSpace=wrap;html=1;fontSize=12;glass=0;strokeWidth=1;shadow=0;fillColor=#0000FF;fontColor=#FFFFFF;" vertex="1" parent="WIyWlLk6GJQsqaUBKTNV-1">
          <mxGeometry x="-643.25" y="680" width="160" height="40" as="geometry" />
        </mxCell>
        <mxCell id="70RoOoR1F2DfWVXdEjB7-24" value="&lt;font style=&quot;font-size: 18px;&quot;&gt;func() (any,error)&lt;/font&gt;" style="rounded=1;whiteSpace=wrap;html=1;fontSize=12;glass=0;strokeWidth=1;shadow=0;fillColor=#0000FF;fontColor=#FFFFFF;" vertex="1" parent="WIyWlLk6GJQsqaUBKTNV-1">
          <mxGeometry x="-325.5" y="898" width="160" height="40" as="geometry" />
        </mxCell>
        <mxCell id="70RoOoR1F2DfWVXdEjB7-33" value="&lt;font style=&quot;font-size: 18px;&quot;&gt;func(context.Context) (any,error)&lt;/font&gt;" style="rounded=1;whiteSpace=wrap;html=1;fontSize=12;glass=0;strokeWidth=1;shadow=0;fillColor=#00FFFF;" vertex="1" parent="WIyWlLk6GJQsqaUBKTNV-1">
          <mxGeometry x="-325.5" y="955.5" width="280" height="40" as="geometry" />
        </mxCell>
        <mxCell id="70RoOoR1F2DfWVXdEjB7-43" value="&lt;font style=&quot;font-size: 18px;&quot;&gt;func() any&lt;/font&gt;" style="rounded=1;whiteSpace=wrap;html=1;fontSize=12;glass=0;strokeWidth=1;shadow=0;fillColor=#FF0000;fontColor=#FFFFFF;strokeColor=#FFFFFF;" vertex="1" parent="WIyWlLk6GJQsqaUBKTNV-1">
          <mxGeometry x="-605.5" y="955.5" width="120" height="40" as="geometry" />
        </mxCell>
        <mxCell id="70RoOoR1F2DfWVXdEjB7-222" value="&lt;font style=&quot;font-size: 18px;&quot;&gt;func() any&lt;/font&gt;" style="rounded=1;whiteSpace=wrap;html=1;fontSize=12;glass=0;strokeWidth=1;shadow=0;fillColor=#FF0000;fontColor=#FFFFFF;strokeColor=#FFFFFF;" vertex="1" parent="WIyWlLk6GJQsqaUBKTNV-1">
          <mxGeometry x="-323.5" y="580" width="120" height="40" as="geometry" />
        </mxCell>
        <mxCell id="70RoOoR1F2DfWVXdEjB7-223" value="&lt;font style=&quot;font-size: 18px;&quot;&gt;func() any&lt;/font&gt;" style="rounded=1;whiteSpace=wrap;html=1;fontSize=12;glass=0;strokeWidth=1;shadow=0;fillColor=#FF0000;fontColor=#FFFFFF;strokeColor=#FFFFFF;" vertex="1" parent="WIyWlLk6GJQsqaUBKTNV-1">
          <mxGeometry x="-323.5" y="630" width="120" height="40" as="geometry" />
        </mxCell>
        <mxCell id="70RoOoR1F2DfWVXdEjB7-224" value="&lt;font style=&quot;font-size: 18px;&quot;&gt;func() any&lt;/font&gt;" style="rounded=1;whiteSpace=wrap;html=1;fontSize=12;glass=0;strokeWidth=1;shadow=0;fillColor=#FF0000;fontColor=#FFFFFF;strokeColor=#FFFFFF;" vertex="1" parent="WIyWlLk6GJQsqaUBKTNV-1">
          <mxGeometry x="-323" y="680" width="120" height="40" as="geometry" />
        </mxCell>
        <mxCell id="70RoOoR1F2DfWVXdEjB7-225" value="&lt;font style=&quot;font-size: 18px;&quot;&gt;func() any&lt;/font&gt;" style="rounded=1;whiteSpace=wrap;html=1;fontSize=12;glass=0;strokeWidth=1;shadow=0;fillColor=#FF0000;fontColor=#FFFFFF;strokeColor=#FFFFFF;" vertex="1" parent="WIyWlLk6GJQsqaUBKTNV-1">
          <mxGeometry x="-605.5" y="840" width="120" height="40" as="geometry" />
        </mxCell>
        <mxCell id="70RoOoR1F2DfWVXdEjB7-236" value="&lt;font style=&quot;font-size: 18px;&quot;&gt;func(context.Context) (any,error)&lt;/font&gt;" style="rounded=1;whiteSpace=wrap;html=1;fontSize=12;glass=0;strokeWidth=1;shadow=0;fillColor=#00FFFF;" vertex="1" parent="WIyWlLk6GJQsqaUBKTNV-1">
          <mxGeometry x="-763" y="580" width="280" height="40" as="geometry" />
        </mxCell>
        <mxCell id="70RoOoR1F2DfWVXdEjB7-246" value="&lt;font style=&quot;font-size: 18px;&quot;&gt;func(context.Context) any&lt;/font&gt;" style="rounded=1;whiteSpace=wrap;html=1;fontSize=12;glass=0;strokeWidth=1;shadow=0;fillColor=#00FF00;" vertex="1" parent="WIyWlLk6GJQsqaUBKTNV-1">
          <mxGeometry x="-713" y="630" width="229.5" height="40" as="geometry" />
        </mxCell>
        <mxCell id="70RoOoR1F2DfWVXdEjB7-297" value="" style="group;movable=1;resizable=1;rotatable=1;deletable=1;editable=1;locked=0;connectable=1;" vertex="1" connectable="0" parent="WIyWlLk6GJQsqaUBKTNV-1">
          <mxGeometry x="-478.75" y="580" width="150" height="40" as="geometry" />
        </mxCell>
        <mxCell id="70RoOoR1F2DfWVXdEjB7-298" value="" style="group" vertex="1" connectable="0" parent="70RoOoR1F2DfWVXdEjB7-297">
          <mxGeometry x="35.75" width="80" height="40" as="geometry" />
        </mxCell>
        <mxCell id="70RoOoR1F2DfWVXdEjB7-299" value="" style="rounded=1;whiteSpace=wrap;html=1;fillColor=#FFFF00;movable=0;resizable=0;rotatable=0;deletable=0;editable=0;locked=1;connectable=0;" vertex="1" parent="70RoOoR1F2DfWVXdEjB7-298">
          <mxGeometry width="80" height="40" as="geometry" />
        </mxCell>
        <mxCell id="70RoOoR1F2DfWVXdEjB7-300" value="" style="endArrow=classic;html=1;rounded=0;entryX=1;entryY=0.5;entryDx=0;entryDy=0;exitX=0;exitY=0.5;exitDx=0;exitDy=0;" edge="1" parent="70RoOoR1F2DfWVXdEjB7-298" source="70RoOoR1F2DfWVXdEjB7-299" target="70RoOoR1F2DfWVXdEjB7-299">
          <mxGeometry width="50" height="50" relative="1" as="geometry">
            <mxPoint x="40" y="40" as="sourcePoint" />
            <mxPoint x="90" y="-10" as="targetPoint" />
          </mxGeometry>
        </mxCell>
        <mxCell id="70RoOoR1F2DfWVXdEjB7-301" value="" style="endArrow=classic;html=1;rounded=0;strokeWidth=2;movable=1;resizable=1;rotatable=1;deletable=1;editable=1;locked=0;connectable=1;" edge="1" parent="70RoOoR1F2DfWVXdEjB7-297">
          <mxGeometry width="50" height="50" relative="1" as="geometry">
            <mxPoint x="115" y="20" as="sourcePoint" />
            <mxPoint x="150" y="20" as="targetPoint" />
          </mxGeometry>
        </mxCell>
        <mxCell id="70RoOoR1F2DfWVXdEjB7-302" value="" style="endArrow=classic;html=1;rounded=0;strokeWidth=2;movable=1;resizable=1;rotatable=1;deletable=1;editable=1;locked=0;connectable=1;" edge="1" parent="70RoOoR1F2DfWVXdEjB7-297">
          <mxGeometry width="50" height="50" relative="1" as="geometry">
            <mxPoint y="20" as="sourcePoint" />
            <mxPoint x="35" y="19.5" as="targetPoint" />
          </mxGeometry>
        </mxCell>
        <mxCell id="70RoOoR1F2DfWVXdEjB7-303" value="" style="group;movable=1;resizable=1;rotatable=1;deletable=1;editable=1;locked=0;connectable=1;" vertex="1" connectable="0" parent="WIyWlLk6GJQsqaUBKTNV-1">
          <mxGeometry x="-478" y="630" width="150" height="40" as="geometry" />
        </mxCell>
        <mxCell id="70RoOoR1F2DfWVXdEjB7-304" value="" style="group" vertex="1" connectable="0" parent="70RoOoR1F2DfWVXdEjB7-303">
          <mxGeometry x="35.75" width="80" height="40" as="geometry" />
        </mxCell>
        <mxCell id="70RoOoR1F2DfWVXdEjB7-305" value="" style="rounded=1;whiteSpace=wrap;html=1;fillColor=#FFFF00;movable=0;resizable=0;rotatable=0;deletable=0;editable=0;locked=1;connectable=0;" vertex="1" parent="70RoOoR1F2DfWVXdEjB7-304">
          <mxGeometry width="80" height="40" as="geometry" />
        </mxCell>
        <mxCell id="70RoOoR1F2DfWVXdEjB7-306" value="" style="endArrow=classic;html=1;rounded=0;entryX=1;entryY=0.5;entryDx=0;entryDy=0;exitX=0;exitY=0.5;exitDx=0;exitDy=0;" edge="1" parent="70RoOoR1F2DfWVXdEjB7-304" source="70RoOoR1F2DfWVXdEjB7-305" target="70RoOoR1F2DfWVXdEjB7-305">
          <mxGeometry width="50" height="50" relative="1" as="geometry">
            <mxPoint x="40" y="40" as="sourcePoint" />
            <mxPoint x="90" y="-10" as="targetPoint" />
          </mxGeometry>
        </mxCell>
        <mxCell id="70RoOoR1F2DfWVXdEjB7-307" value="" style="endArrow=classic;html=1;rounded=0;strokeWidth=2;movable=1;resizable=1;rotatable=1;deletable=1;editable=1;locked=0;connectable=1;" edge="1" parent="70RoOoR1F2DfWVXdEjB7-303">
          <mxGeometry width="50" height="50" relative="1" as="geometry">
            <mxPoint x="115" y="20" as="sourcePoint" />
            <mxPoint x="150" y="20" as="targetPoint" />
          </mxGeometry>
        </mxCell>
        <mxCell id="70RoOoR1F2DfWVXdEjB7-308" value="" style="endArrow=classic;html=1;rounded=0;strokeWidth=2;movable=1;resizable=1;rotatable=1;deletable=1;editable=1;locked=0;connectable=1;" edge="1" parent="70RoOoR1F2DfWVXdEjB7-303">
          <mxGeometry width="50" height="50" relative="1" as="geometry">
            <mxPoint y="20" as="sourcePoint" />
            <mxPoint x="35" y="19.5" as="targetPoint" />
          </mxGeometry>
        </mxCell>
        <mxCell id="70RoOoR1F2DfWVXdEjB7-309" value="" style="group;movable=1;resizable=1;rotatable=1;deletable=1;editable=1;locked=0;connectable=1;" vertex="1" connectable="0" parent="WIyWlLk6GJQsqaUBKTNV-1">
          <mxGeometry x="-478" y="680" width="150" height="40" as="geometry" />
        </mxCell>
        <mxCell id="70RoOoR1F2DfWVXdEjB7-310" value="" style="group" vertex="1" connectable="0" parent="70RoOoR1F2DfWVXdEjB7-309">
          <mxGeometry x="35.75" width="80" height="40" as="geometry" />
        </mxCell>
        <mxCell id="70RoOoR1F2DfWVXdEjB7-311" value="" style="rounded=1;whiteSpace=wrap;html=1;fillColor=#FFFF00;movable=0;resizable=0;rotatable=0;deletable=0;editable=0;locked=1;connectable=0;" vertex="1" parent="70RoOoR1F2DfWVXdEjB7-310">
          <mxGeometry width="80" height="40" as="geometry" />
        </mxCell>
        <mxCell id="70RoOoR1F2DfWVXdEjB7-312" value="" style="endArrow=classic;html=1;rounded=0;entryX=1;entryY=0.5;entryDx=0;entryDy=0;exitX=0;exitY=0.5;exitDx=0;exitDy=0;" edge="1" parent="70RoOoR1F2DfWVXdEjB7-310" source="70RoOoR1F2DfWVXdEjB7-311" target="70RoOoR1F2DfWVXdEjB7-311">
          <mxGeometry width="50" height="50" relative="1" as="geometry">
            <mxPoint x="40" y="40" as="sourcePoint" />
            <mxPoint x="90" y="-10" as="targetPoint" />
          </mxGeometry>
        </mxCell>
        <mxCell id="70RoOoR1F2DfWVXdEjB7-313" value="" style="endArrow=classic;html=1;rounded=0;strokeWidth=2;movable=1;resizable=1;rotatable=1;deletable=1;editable=1;locked=0;connectable=1;" edge="1" parent="70RoOoR1F2DfWVXdEjB7-309">
          <mxGeometry width="50" height="50" relative="1" as="geometry">
            <mxPoint x="115" y="20" as="sourcePoint" />
            <mxPoint x="150" y="20" as="targetPoint" />
          </mxGeometry>
        </mxCell>
        <mxCell id="70RoOoR1F2DfWVXdEjB7-314" value="" style="endArrow=classic;html=1;rounded=0;strokeWidth=2;movable=1;resizable=1;rotatable=1;deletable=1;editable=1;locked=0;connectable=1;" edge="1" parent="70RoOoR1F2DfWVXdEjB7-309">
          <mxGeometry width="50" height="50" relative="1" as="geometry">
            <mxPoint y="20" as="sourcePoint" />
            <mxPoint x="35" y="19.5" as="targetPoint" />
          </mxGeometry>
        </mxCell>
        <mxCell id="70RoOoR1F2DfWVXdEjB7-315" value="&lt;font style=&quot;font-size: 18px;&quot;&gt;func(context.Context) any&lt;/font&gt;" style="rounded=1;whiteSpace=wrap;html=1;fontSize=12;glass=0;strokeWidth=1;shadow=0;fillColor=#00FF00;" vertex="1" parent="WIyWlLk6GJQsqaUBKTNV-1">
          <mxGeometry x="-325.75" y="470" width="229.5" height="40" as="geometry" />
        </mxCell>
        <mxCell id="70RoOoR1F2DfWVXdEjB7-316" value="&lt;font style=&quot;font-size: 18px;&quot;&gt;func() (any,error)&lt;/font&gt;" style="rounded=1;whiteSpace=wrap;html=1;fontSize=12;glass=0;strokeWidth=1;shadow=0;fillColor=#0000FF;fontColor=#FFFFFF;" vertex="1" parent="WIyWlLk6GJQsqaUBKTNV-1">
          <mxGeometry x="-325.25" y="290" width="160" height="40" as="geometry" />
        </mxCell>
        <mxCell id="70RoOoR1F2DfWVXdEjB7-317" value="&lt;font style=&quot;font-size: 18px;&quot;&gt;func(context.Context) (any,error)&lt;/font&gt;" style="rounded=1;whiteSpace=wrap;html=1;fontSize=12;glass=0;strokeWidth=1;shadow=0;fillColor=#00FFFF;" vertex="1" parent="WIyWlLk6GJQsqaUBKTNV-1">
          <mxGeometry x="-325.5" y="230" width="280" height="40" as="geometry" />
        </mxCell>
        <mxCell id="70RoOoR1F2DfWVXdEjB7-342" value="&lt;font style=&quot;font-size: 18px;&quot;&gt;func() (any,error)&lt;/font&gt;" style="rounded=1;whiteSpace=wrap;html=1;fontSize=12;glass=0;strokeWidth=1;shadow=0;fillColor=#0000FF;fontColor=#FFFFFF;" vertex="1" parent="WIyWlLk6GJQsqaUBKTNV-1">
          <mxGeometry x="-646.5" y="230" width="160" height="40" as="geometry" />
        </mxCell>
        <mxCell id="70RoOoR1F2DfWVXdEjB7-343" value="&lt;font style=&quot;font-size: 18px;&quot;&gt;func(context.Context) (any,error)&lt;/font&gt;" style="rounded=1;whiteSpace=wrap;html=1;fontSize=12;glass=0;strokeWidth=1;shadow=0;fillColor=#00FFFF;" vertex="1" parent="WIyWlLk6GJQsqaUBKTNV-1">
          <mxGeometry x="-765.75" y="470" width="280" height="40" as="geometry" />
        </mxCell>
        <mxCell id="70RoOoR1F2DfWVXdEjB7-344" value="&lt;font style=&quot;font-size: 18px;&quot;&gt;func(context.Context) any&lt;/font&gt;" style="rounded=1;whiteSpace=wrap;html=1;fontSize=12;glass=0;strokeWidth=1;shadow=0;fillColor=#00FF00;" vertex="1" parent="WIyWlLk6GJQsqaUBKTNV-1">
          <mxGeometry x="-715.25" y="290" width="229.5" height="40" as="geometry" />
        </mxCell>
        <mxCell id="70RoOoR1F2DfWVXdEjB7-345" value="&lt;font style=&quot;font-size: 18px;&quot;&gt;func(context.Context) any&lt;/font&gt;" style="rounded=1;whiteSpace=wrap;html=1;fontSize=12;glass=0;strokeWidth=1;shadow=0;fillColor=#00FF00;" vertex="1" parent="WIyWlLk6GJQsqaUBKTNV-1">
          <mxGeometry x="-325.75" y="170" width="229.5" height="40" as="geometry" />
        </mxCell>
        <mxCell id="70RoOoR1F2DfWVXdEjB7-369" value="&lt;font style=&quot;font-size: 18px;&quot;&gt;func() (any,error)&lt;/font&gt;" style="rounded=1;whiteSpace=wrap;html=1;fontSize=12;glass=0;strokeWidth=1;shadow=0;fillColor=#0000FF;fontColor=#FFFFFF;" vertex="1" parent="WIyWlLk6GJQsqaUBKTNV-1">
          <mxGeometry x="-646.5" y="170" width="160" height="40" as="geometry" />
        </mxCell>
        <mxCell id="70RoOoR1F2DfWVXdEjB7-381" value="&lt;font style=&quot;font-size: 18px;&quot;&gt;func(context.Context) (any,error)&lt;/font&gt;" style="rounded=1;whiteSpace=wrap;html=1;fontSize=12;glass=0;strokeWidth=1;shadow=0;fillColor=#00FFFF;" vertex="1" parent="WIyWlLk6GJQsqaUBKTNV-1">
          <mxGeometry x="-325.5" y="350" width="280" height="40" as="geometry" />
        </mxCell>
        <mxCell id="70RoOoR1F2DfWVXdEjB7-398" value="&lt;font style=&quot;font-size: 18px;&quot;&gt;func() (any,error)&lt;/font&gt;" style="rounded=1;whiteSpace=wrap;html=1;fontSize=12;glass=0;strokeWidth=1;shadow=0;fillColor=#0000FF;fontColor=#FFFFFF;" vertex="1" parent="WIyWlLk6GJQsqaUBKTNV-1">
          <mxGeometry x="-325.5" y="410" width="160" height="40" as="geometry" />
        </mxCell>
        <mxCell id="70RoOoR1F2DfWVXdEjB7-413" value="&lt;font style=&quot;font-size: 18px;&quot;&gt;func(context.Context) (any,error)&lt;/font&gt;" style="rounded=1;whiteSpace=wrap;html=1;fontSize=12;glass=0;strokeWidth=1;shadow=0;fillColor=#00FFFF;" vertex="1" parent="WIyWlLk6GJQsqaUBKTNV-1">
          <mxGeometry x="-766.5" y="410" width="280" height="40" as="geometry" />
        </mxCell>
        <mxCell id="70RoOoR1F2DfWVXdEjB7-415" value="" style="group;movable=1;resizable=1;rotatable=1;deletable=1;editable=1;locked=0;connectable=1;" vertex="1" connectable="0" parent="WIyWlLk6GJQsqaUBKTNV-1">
          <mxGeometry x="-479.5" y="470" width="150" height="40" as="geometry" />
        </mxCell>
        <mxCell id="70RoOoR1F2DfWVXdEjB7-416" value="" style="group" vertex="1" connectable="0" parent="70RoOoR1F2DfWVXdEjB7-415">
          <mxGeometry x="35.75" width="80" height="40" as="geometry" />
        </mxCell>
        <mxCell id="70RoOoR1F2DfWVXdEjB7-417" value="" style="rounded=1;whiteSpace=wrap;html=1;fillColor=#FFFF00;movable=0;resizable=0;rotatable=0;deletable=0;editable=0;locked=1;connectable=0;" vertex="1" parent="70RoOoR1F2DfWVXdEjB7-416">
          <mxGeometry width="80" height="40" as="geometry" />
        </mxCell>
        <mxCell id="70RoOoR1F2DfWVXdEjB7-418" value="" style="endArrow=classic;html=1;rounded=0;entryX=1;entryY=0.5;entryDx=0;entryDy=0;exitX=0;exitY=0.5;exitDx=0;exitDy=0;" edge="1" parent="70RoOoR1F2DfWVXdEjB7-416" source="70RoOoR1F2DfWVXdEjB7-417" target="70RoOoR1F2DfWVXdEjB7-417">
          <mxGeometry width="50" height="50" relative="1" as="geometry">
            <mxPoint x="40" y="40" as="sourcePoint" />
            <mxPoint x="90" y="-10" as="targetPoint" />
          </mxGeometry>
        </mxCell>
        <mxCell id="70RoOoR1F2DfWVXdEjB7-419" value="" style="endArrow=classic;html=1;rounded=0;strokeWidth=2;movable=1;resizable=1;rotatable=1;deletable=1;editable=1;locked=0;connectable=1;" edge="1" parent="70RoOoR1F2DfWVXdEjB7-415">
          <mxGeometry width="50" height="50" relative="1" as="geometry">
            <mxPoint x="115" y="20" as="sourcePoint" />
            <mxPoint x="150" y="20" as="targetPoint" />
          </mxGeometry>
        </mxCell>
        <mxCell id="70RoOoR1F2DfWVXdEjB7-420" value="" style="endArrow=classic;html=1;rounded=0;strokeWidth=2;movable=1;resizable=1;rotatable=1;deletable=1;editable=1;locked=0;connectable=1;" edge="1" parent="70RoOoR1F2DfWVXdEjB7-415">
          <mxGeometry width="50" height="50" relative="1" as="geometry">
            <mxPoint y="20" as="sourcePoint" />
            <mxPoint x="35" y="19.5" as="targetPoint" />
          </mxGeometry>
        </mxCell>
        <mxCell id="70RoOoR1F2DfWVXdEjB7-555" value="&lt;font style=&quot;font-size: 18px;&quot;&gt;func() any&lt;/font&gt;" style="rounded=1;whiteSpace=wrap;html=1;fontSize=12;glass=0;strokeWidth=1;shadow=0;fillColor=#FF0000;fontColor=#FFFFFF;strokeColor=#FFFFFF;" vertex="1" parent="WIyWlLk6GJQsqaUBKTNV-1">
          <mxGeometry x="-323.5" y="730" width="120" height="40" as="geometry" />
        </mxCell>
        <mxCell id="70RoOoR1F2DfWVXdEjB7-556" value="" style="group;movable=1;resizable=1;rotatable=1;deletable=1;editable=1;locked=0;connectable=1;" vertex="1" connectable="0" parent="WIyWlLk6GJQsqaUBKTNV-1">
          <mxGeometry x="-478.5" y="730" width="150" height="40" as="geometry" />
        </mxCell>
        <mxCell id="70RoOoR1F2DfWVXdEjB7-557" value="" style="group" vertex="1" connectable="0" parent="70RoOoR1F2DfWVXdEjB7-556">
          <mxGeometry x="35.75" width="80" height="40" as="geometry" />
        </mxCell>
        <mxCell id="70RoOoR1F2DfWVXdEjB7-558" value="" style="rounded=1;whiteSpace=wrap;html=1;fillColor=#FFFF00;movable=0;resizable=0;rotatable=0;deletable=0;editable=0;locked=1;connectable=0;" vertex="1" parent="70RoOoR1F2DfWVXdEjB7-557">
          <mxGeometry width="80" height="40" as="geometry" />
        </mxCell>
        <mxCell id="70RoOoR1F2DfWVXdEjB7-559" value="" style="endArrow=classic;html=1;rounded=0;entryX=1;entryY=0.5;entryDx=0;entryDy=0;exitX=0;exitY=0.5;exitDx=0;exitDy=0;" edge="1" parent="70RoOoR1F2DfWVXdEjB7-557" source="70RoOoR1F2DfWVXdEjB7-558" target="70RoOoR1F2DfWVXdEjB7-558">
          <mxGeometry width="50" height="50" relative="1" as="geometry">
            <mxPoint x="40" y="40" as="sourcePoint" />
            <mxPoint x="90" y="-10" as="targetPoint" />
          </mxGeometry>
        </mxCell>
        <mxCell id="70RoOoR1F2DfWVXdEjB7-560" value="" style="endArrow=classic;html=1;rounded=0;strokeWidth=2;movable=1;resizable=1;rotatable=1;deletable=1;editable=1;locked=0;connectable=1;" edge="1" parent="70RoOoR1F2DfWVXdEjB7-556">
          <mxGeometry width="50" height="50" relative="1" as="geometry">
            <mxPoint x="115" y="20" as="sourcePoint" />
            <mxPoint x="150" y="20" as="targetPoint" />
          </mxGeometry>
        </mxCell>
        <mxCell id="70RoOoR1F2DfWVXdEjB7-561" value="" style="endArrow=classic;html=1;rounded=0;strokeWidth=2;movable=1;resizable=1;rotatable=1;deletable=1;editable=1;locked=0;connectable=1;" edge="1" parent="70RoOoR1F2DfWVXdEjB7-556">
          <mxGeometry width="50" height="50" relative="1" as="geometry">
            <mxPoint y="20" as="sourcePoint" />
            <mxPoint x="35" y="19.5" as="targetPoint" />
          </mxGeometry>
        </mxCell>
        <mxCell id="70RoOoR1F2DfWVXdEjB7-562" value="&lt;font style=&quot;font-size: 18px;&quot;&gt;func() any&lt;/font&gt;" style="rounded=1;whiteSpace=wrap;html=1;fontSize=12;glass=0;strokeWidth=1;shadow=0;fillColor=#FF0000;fontColor=#FFFFFF;strokeColor=#FFFFFF;" vertex="1" parent="WIyWlLk6GJQsqaUBKTNV-1">
          <mxGeometry x="-603.75" y="730" width="120" height="40" as="geometry" />
        </mxCell>
        <mxCell id="70RoOoR1F2DfWVXdEjB7-569" value="&lt;font style=&quot;font-size: 18px;&quot;&gt;func() any&lt;/font&gt;" style="rounded=1;whiteSpace=wrap;html=1;fontSize=12;glass=0;strokeWidth=1;shadow=0;fillColor=#FF0000;fontColor=#FFFFFF;strokeColor=#FFFFFF;" vertex="1" parent="WIyWlLk6GJQsqaUBKTNV-1">
          <mxGeometry x="-605.5" y="897" width="120" height="40" as="geometry" />
        </mxCell>
        <mxCell id="70RoOoR1F2DfWVXdEjB7-572" value="" style="group" vertex="1" connectable="0" parent="WIyWlLk6GJQsqaUBKTNV-1">
          <mxGeometry x="-479.5" y="170" width="149.25" height="45" as="geometry" />
        </mxCell>
        <mxCell id="70RoOoR1F2DfWVXdEjB7-464" value="" style="shape=trapezoid;perimeter=trapezoidPerimeter;whiteSpace=wrap;html=1;fixedSize=1;rotation=90;size=17.5;fillColor=#FF00FF;container=0;movable=1;resizable=1;rotatable=1;deletable=1;editable=1;locked=0;connectable=1;" vertex="1" parent="70RoOoR1F2DfWVXdEjB7-572">
          <mxGeometry x="51.75" y="-17.5" width="45" height="80" as="geometry" />
        </mxCell>
        <mxCell id="70RoOoR1F2DfWVXdEjB7-465" value="" style="endArrow=classic;html=1;rounded=0;strokeWidth=2;movable=1;resizable=1;rotatable=1;deletable=1;editable=1;locked=0;connectable=1;" edge="1" parent="70RoOoR1F2DfWVXdEjB7-572">
          <mxGeometry width="50" height="50" relative="1" as="geometry">
            <mxPoint x="114.25" y="22.5" as="sourcePoint" />
            <mxPoint x="149.25" y="22.5" as="targetPoint" />
          </mxGeometry>
        </mxCell>
        <mxCell id="70RoOoR1F2DfWVXdEjB7-466" value="" style="endArrow=classic;html=1;rounded=0;entryX=1;entryY=0.5;entryDx=0;entryDy=0;exitX=0;exitY=0.5;exitDx=0;exitDy=0;movable=1;resizable=1;rotatable=1;deletable=1;editable=1;locked=0;connectable=1;" edge="1" parent="70RoOoR1F2DfWVXdEjB7-572">
          <mxGeometry width="50" height="50" relative="1" as="geometry">
            <mxPoint x="35" y="22.5" as="sourcePoint" />
            <mxPoint x="115" y="22.5" as="targetPoint" />
          </mxGeometry>
        </mxCell>
        <mxCell id="70RoOoR1F2DfWVXdEjB7-467" value="" style="endArrow=classic;html=1;rounded=0;strokeWidth=2;movable=1;resizable=1;rotatable=1;deletable=1;editable=1;locked=0;connectable=1;" edge="1" parent="70RoOoR1F2DfWVXdEjB7-572">
          <mxGeometry width="50" height="50" relative="1" as="geometry">
            <mxPoint y="23" as="sourcePoint" />
            <mxPoint x="35" y="22.5" as="targetPoint" />
          </mxGeometry>
        </mxCell>
        <mxCell id="70RoOoR1F2DfWVXdEjB7-578" value="&lt;font style=&quot;font-size: 18px;&quot;&gt;func(context.Context) any&lt;/font&gt;" style="rounded=1;whiteSpace=wrap;html=1;fontSize=12;glass=0;strokeWidth=1;shadow=0;fillColor=#00FF00;" vertex="1" parent="WIyWlLk6GJQsqaUBKTNV-1">
          <mxGeometry x="-716" y="350" width="229.5" height="40" as="geometry" />
        </mxCell>
        <mxCell id="70RoOoR1F2DfWVXdEjB7-630" value="" style="group" vertex="1" connectable="0" parent="WIyWlLk6GJQsqaUBKTNV-1">
          <mxGeometry x="-480.57000000000005" y="892.0042340734326" width="149.25" height="51.9057659265672" as="geometry" />
        </mxCell>
        <mxCell id="70RoOoR1F2DfWVXdEjB7-591" value="" style="endArrow=classic;html=1;rounded=0;strokeWidth=2;movable=1;resizable=1;rotatable=1;deletable=1;editable=1;locked=0;connectable=1;" edge="1" parent="70RoOoR1F2DfWVXdEjB7-630">
          <mxGeometry width="50" height="50" relative="1" as="geometry">
            <mxPoint x="114.25" y="25.4057659265672" as="sourcePoint" />
            <mxPoint x="149.25" y="25.4057659265672" as="targetPoint" />
          </mxGeometry>
        </mxCell>
        <mxCell id="70RoOoR1F2DfWVXdEjB7-592" value="" style="ellipse;shape=cloud;whiteSpace=wrap;html=1;rotation=2;fillColor=#B3B3B3;container=0;" vertex="1" parent="70RoOoR1F2DfWVXdEjB7-630">
          <mxGeometry x="20" y="1.9057659265671987" width="110" height="45" as="geometry" />
        </mxCell>
        <mxCell id="70RoOoR1F2DfWVXdEjB7-593" value="" style="endArrow=classic;html=1;rounded=0;endSize=1;spacing=2;" edge="1" parent="70RoOoR1F2DfWVXdEjB7-630">
          <mxGeometry width="50" height="50" relative="1" as="geometry">
            <mxPoint x="62.620000000000005" y="25.9057659265672" as="sourcePoint" />
            <mxPoint x="92.62" y="4.905765926567199" as="targetPoint" />
          </mxGeometry>
        </mxCell>
        <mxCell id="70RoOoR1F2DfWVXdEjB7-594" value="" style="endArrow=classic;html=1;rounded=0;strokeWidth=2;movable=1;resizable=1;rotatable=1;deletable=1;editable=1;locked=0;connectable=1;" edge="1" parent="70RoOoR1F2DfWVXdEjB7-630">
          <mxGeometry width="50" height="50" relative="1" as="geometry">
            <mxPoint y="25.9057659265672" as="sourcePoint" />
            <mxPoint x="35" y="25.4057659265672" as="targetPoint" />
          </mxGeometry>
        </mxCell>
        <mxCell id="70RoOoR1F2DfWVXdEjB7-596" value="" style="endArrow=classic;html=1;rounded=0;endSize=1;spacing=2;" edge="1" parent="70RoOoR1F2DfWVXdEjB7-630">
          <mxGeometry width="50" height="50" relative="1" as="geometry">
            <mxPoint x="91" y="25.9057659265672" as="sourcePoint" />
            <mxPoint x="113.62" y="4.905765926567199" as="targetPoint" />
          </mxGeometry>
        </mxCell>
        <mxCell id="70RoOoR1F2DfWVXdEjB7-597" value="" style="endArrow=classic;html=1;rounded=0;endSize=1;" edge="1" parent="70RoOoR1F2DfWVXdEjB7-630">
          <mxGeometry width="50" height="50" relative="1" as="geometry">
            <mxPoint x="80" y="25.905765926567256" as="sourcePoint" />
            <mxPoint x="113.62" y="44.9057659265672" as="targetPoint" />
          </mxGeometry>
        </mxCell>
        <mxCell id="70RoOoR1F2DfWVXdEjB7-598" value="" style="endArrow=classic;html=1;rounded=0;endSize=1;" edge="1" parent="70RoOoR1F2DfWVXdEjB7-630">
          <mxGeometry width="50" height="50" relative="1" as="geometry">
            <mxPoint x="70" y="35.905765926567256" as="sourcePoint" />
            <mxPoint x="84.62" y="51.9057659265672" as="targetPoint" />
          </mxGeometry>
        </mxCell>
        <mxCell id="70RoOoR1F2DfWVXdEjB7-595" value="" style="endArrow=classic;html=1;jumpStyle=none;jumpSize=5;startSize=0;endSize=6;sourcePerimeterSpacing=0;targetPerimeterSpacing=0;sketch=1;curveFitting=1;jiggle=2;shadow=1;strokeColor=#525152;strokeWidth=3;curved=1;" edge="1" parent="70RoOoR1F2DfWVXdEjB7-630">
          <mxGeometry width="50" height="50" relative="1" as="geometry">
            <mxPoint x="30.329999999999984" y="25.955765926567267" as="sourcePoint" />
            <mxPoint x="119.66999999999996" y="26.955765926567267" as="targetPoint" />
            <Array as="points">
              <mxPoint x="60.329999999999984" y="15.955765926567267" />
              <mxPoint x="65.05000000000001" y="25.955765926567267" />
              <mxPoint x="65.05000000000001" y="35.95576592656727" />
              <mxPoint x="75.05000000000001" y="35.95576592656727" />
              <mxPoint x="74.67000000000002" y="25.955765926567267" />
              <mxPoint x="82.79000000000002" y="26.610000000000014" />
              <mxPoint x="85.05000000000001" y="15.955765926567267" />
              <mxPoint x="95.05000000000001" y="25.955765926567267" />
            </Array>
          </mxGeometry>
        </mxCell>
        <mxCell id="70RoOoR1F2DfWVXdEjB7-669" value="" style="group" vertex="1" connectable="0" parent="WIyWlLk6GJQsqaUBKTNV-1">
          <mxGeometry x="-478.62" y="344.04423407343273" width="149.25" height="51.9057659265672" as="geometry" />
        </mxCell>
        <mxCell id="70RoOoR1F2DfWVXdEjB7-670" value="" style="endArrow=classic;html=1;rounded=0;strokeWidth=2;movable=1;resizable=1;rotatable=1;deletable=1;editable=1;locked=0;connectable=1;" edge="1" parent="70RoOoR1F2DfWVXdEjB7-669">
          <mxGeometry width="50" height="50" relative="1" as="geometry">
            <mxPoint x="114.25" y="25.4057659265672" as="sourcePoint" />
            <mxPoint x="149.25" y="25.4057659265672" as="targetPoint" />
          </mxGeometry>
        </mxCell>
        <mxCell id="70RoOoR1F2DfWVXdEjB7-671" value="" style="ellipse;shape=cloud;whiteSpace=wrap;html=1;rotation=2;fillColor=#B3B3B3;container=0;" vertex="1" parent="70RoOoR1F2DfWVXdEjB7-669">
          <mxGeometry x="20" y="1.9057659265671987" width="110" height="45" as="geometry" />
        </mxCell>
        <mxCell id="70RoOoR1F2DfWVXdEjB7-672" value="" style="endArrow=classic;html=1;rounded=0;endSize=1;spacing=2;" edge="1" parent="70RoOoR1F2DfWVXdEjB7-669">
          <mxGeometry width="50" height="50" relative="1" as="geometry">
            <mxPoint x="62.620000000000005" y="25.9057659265672" as="sourcePoint" />
            <mxPoint x="92.62" y="4.905765926567199" as="targetPoint" />
          </mxGeometry>
        </mxCell>
        <mxCell id="70RoOoR1F2DfWVXdEjB7-673" value="" style="endArrow=classic;html=1;rounded=0;strokeWidth=2;movable=1;resizable=1;rotatable=1;deletable=1;editable=1;locked=0;connectable=1;" edge="1" parent="70RoOoR1F2DfWVXdEjB7-669">
          <mxGeometry width="50" height="50" relative="1" as="geometry">
            <mxPoint y="25.9057659265672" as="sourcePoint" />
            <mxPoint x="35" y="25.4057659265672" as="targetPoint" />
          </mxGeometry>
        </mxCell>
        <mxCell id="70RoOoR1F2DfWVXdEjB7-674" value="" style="endArrow=classic;html=1;rounded=0;endSize=1;spacing=2;" edge="1" parent="70RoOoR1F2DfWVXdEjB7-669">
          <mxGeometry width="50" height="50" relative="1" as="geometry">
            <mxPoint x="91" y="25.9057659265672" as="sourcePoint" />
            <mxPoint x="113.62" y="4.905765926567199" as="targetPoint" />
          </mxGeometry>
        </mxCell>
        <mxCell id="70RoOoR1F2DfWVXdEjB7-675" value="" style="endArrow=classic;html=1;rounded=0;endSize=1;" edge="1" parent="70RoOoR1F2DfWVXdEjB7-669">
          <mxGeometry width="50" height="50" relative="1" as="geometry">
            <mxPoint x="80" y="25.905765926567256" as="sourcePoint" />
            <mxPoint x="113.62" y="44.9057659265672" as="targetPoint" />
          </mxGeometry>
        </mxCell>
        <mxCell id="70RoOoR1F2DfWVXdEjB7-676" value="" style="endArrow=classic;html=1;rounded=0;endSize=1;" edge="1" parent="70RoOoR1F2DfWVXdEjB7-669">
          <mxGeometry width="50" height="50" relative="1" as="geometry">
            <mxPoint x="70" y="35.905765926567256" as="sourcePoint" />
            <mxPoint x="84.62" y="51.9057659265672" as="targetPoint" />
          </mxGeometry>
        </mxCell>
        <mxCell id="70RoOoR1F2DfWVXdEjB7-677" value="" style="endArrow=classic;html=1;jumpStyle=none;jumpSize=5;startSize=0;endSize=6;sourcePerimeterSpacing=0;targetPerimeterSpacing=0;sketch=1;curveFitting=1;jiggle=2;shadow=1;strokeColor=#525152;strokeWidth=3;curved=1;" edge="1" parent="70RoOoR1F2DfWVXdEjB7-669">
          <mxGeometry width="50" height="50" relative="1" as="geometry">
            <mxPoint x="30.329999999999984" y="25.955765926567267" as="sourcePoint" />
            <mxPoint x="119.66999999999996" y="26.955765926567267" as="targetPoint" />
            <Array as="points">
              <mxPoint x="60.329999999999984" y="15.955765926567267" />
              <mxPoint x="65.05000000000001" y="25.955765926567267" />
              <mxPoint x="65.05000000000001" y="35.95576592656727" />
              <mxPoint x="75.05000000000001" y="35.95576592656727" />
              <mxPoint x="74.67000000000002" y="25.955765926567267" />
              <mxPoint x="82.79000000000002" y="26.610000000000014" />
              <mxPoint x="85.05000000000001" y="15.955765926567267" />
              <mxPoint x="95.05000000000001" y="25.955765926567267" />
            </Array>
          </mxGeometry>
        </mxCell>
        <mxCell id="70RoOoR1F2DfWVXdEjB7-716" value="" style="group" vertex="1" connectable="0" parent="WIyWlLk6GJQsqaUBKTNV-1">
          <mxGeometry x="-960" width="1230.25" height="98" as="geometry" />
        </mxCell>
        <mxCell id="70RoOoR1F2DfWVXdEjB7-421" value="Ergonomic, Functional, Robust" style="text;html=1;strokeColor=none;fillColor=none;align=center;verticalAlign=middle;whiteSpace=wrap;rounded=0;container=0;" vertex="1" parent="70RoOoR1F2DfWVXdEjB7-716">
          <mxGeometry x="599.25" y="8" width="60" height="30" as="geometry" />
        </mxCell>
        <mxCell id="70RoOoR1F2DfWVXdEjB7-422" value="NOT Ergonomic, Functional, Robust" style="text;html=1;strokeColor=none;fillColor=none;align=center;verticalAlign=middle;whiteSpace=wrap;rounded=0;container=0;" vertex="1" parent="70RoOoR1F2DfWVXdEjB7-716">
          <mxGeometry x="770" y="8" width="95.75" height="30" as="geometry" />
        </mxCell>
        <mxCell id="70RoOoR1F2DfWVXdEjB7-468" value="Ergonomic, &lt;br&gt;NOT Functional, Robust" style="text;html=1;strokeColor=none;fillColor=none;align=center;verticalAlign=middle;whiteSpace=wrap;rounded=0;movable=1;resizable=1;rotatable=1;deletable=1;editable=1;locked=0;connectable=1;container=0;" vertex="1" parent="70RoOoR1F2DfWVXdEjB7-716">
          <mxGeometry x="16.75" y="13" width="95.75" height="30" as="geometry" />
        </mxCell>
        <mxCell id="70RoOoR1F2DfWVXdEjB7-529" value="" style="ellipse;whiteSpace=wrap;html=1;strokeWidth=2;fillWeight=2;hachureGap=8;fillColor=#990000;fillStyle=dots;sketch=1;shadow=1;gradientColor=#B3B3B3;container=0;" vertex="1" parent="70RoOoR1F2DfWVXdEjB7-716">
          <mxGeometry x="380.30999999999995" y="43" width="90" height="45" as="geometry" />
        </mxCell>
        <mxCell id="70RoOoR1F2DfWVXdEjB7-531" value="NOT Ergonomic,&lt;br style=&quot;border-color: var(--border-color);&quot;&gt;NOT Functional,&lt;br&gt;NOT Robust" style="text;html=1;strokeColor=none;fillColor=none;align=center;verticalAlign=middle;whiteSpace=wrap;rounded=0;container=0;" vertex="1" parent="70RoOoR1F2DfWVXdEjB7-716">
          <mxGeometry x="378.30999999999995" width="95.75" height="30" as="geometry" />
        </mxCell>
        <mxCell id="70RoOoR1F2DfWVXdEjB7-534" value="" style="endArrow=classic;html=1;rounded=0;strokeWidth=2;movable=1;resizable=1;rotatable=1;deletable=1;editable=1;locked=0;connectable=1;" edge="1" parent="70RoOoR1F2DfWVXdEjB7-716">
          <mxGeometry width="50" height="50" relative="1" as="geometry">
            <mxPoint x="470.30999999999995" y="66" as="sourcePoint" />
            <mxPoint x="505.30999999999995" y="66" as="targetPoint" />
          </mxGeometry>
        </mxCell>
        <mxCell id="70RoOoR1F2DfWVXdEjB7-430" value="" style="shape=trapezoid;perimeter=trapezoidPerimeter;whiteSpace=wrap;html=1;fixedSize=1;rotation=90;size=17.5;fillColor=#7F00FF;container=0;movable=1;resizable=1;rotatable=1;deletable=1;editable=1;locked=0;connectable=1;" vertex="1" parent="70RoOoR1F2DfWVXdEjB7-716">
          <mxGeometry x="223" y="28" width="45" height="80" as="geometry" />
        </mxCell>
        <mxCell id="70RoOoR1F2DfWVXdEjB7-426" value="" style="curved=1;endArrow=classic;html=1;rounded=0;entryX=1;entryY=0.5;entryDx=0;entryDy=0;movable=1;resizable=1;rotatable=1;deletable=1;editable=1;locked=0;connectable=1;strokeColor=#FFFFFF;" edge="1" parent="70RoOoR1F2DfWVXdEjB7-716">
          <mxGeometry width="50" height="50" relative="1" as="geometry">
            <mxPoint x="205.5" y="68" as="sourcePoint" />
            <mxPoint x="285.5" y="68" as="targetPoint" />
            <Array as="points">
              <mxPoint x="215.5" y="68" />
              <mxPoint x="215.5" y="88" />
              <mxPoint x="235.5" y="58" />
              <mxPoint x="255.5" y="58" />
              <mxPoint x="245.5" y="68" />
              <mxPoint x="250" y="78" />
              <mxPoint x="275.5" y="68" />
            </Array>
          </mxGeometry>
        </mxCell>
        <mxCell id="70RoOoR1F2DfWVXdEjB7-589" value="Ergonomic,&lt;br&gt;Functional,&lt;br&gt;NOT Robust" style="text;html=1;strokeColor=none;fillColor=none;align=center;verticalAlign=middle;whiteSpace=wrap;rounded=0;container=0;" vertex="1" parent="70RoOoR1F2DfWVXdEjB7-716">
          <mxGeometry x="940.75" y="5" width="95.75" height="30" as="geometry" />
        </mxCell>
        <mxCell id="70RoOoR1F2DfWVXdEjB7-601" value="NOT Ergonomic,&lt;br&gt;Functional,&lt;br&gt;NOT Robust" style="text;html=1;strokeColor=none;fillColor=none;align=center;verticalAlign=middle;whiteSpace=wrap;rounded=0;container=0;" vertex="1" parent="70RoOoR1F2DfWVXdEjB7-716">
          <mxGeometry x="1107.75" width="95.75" height="30" as="geometry" />
        </mxCell>
        <mxCell id="70RoOoR1F2DfWVXdEjB7-602" value="" style="endArrow=classic;html=1;rounded=0;strokeWidth=2;movable=1;resizable=1;rotatable=1;deletable=1;editable=1;locked=0;connectable=1;" edge="1" parent="70RoOoR1F2DfWVXdEjB7-716">
          <mxGeometry width="50" height="50" relative="1" as="geometry">
            <mxPoint x="1195.25" y="69.5" as="sourcePoint" />
            <mxPoint x="1230.25" y="69.5" as="targetPoint" />
          </mxGeometry>
        </mxCell>
        <mxCell id="70RoOoR1F2DfWVXdEjB7-603" value="" style="ellipse;shape=cloud;whiteSpace=wrap;html=1;rotation=2;fillColor=#B3B3B3;container=0;" vertex="1" parent="70RoOoR1F2DfWVXdEjB7-716">
          <mxGeometry x="1101" y="46" width="110" height="45" as="geometry" />
        </mxCell>
        <mxCell id="70RoOoR1F2DfWVXdEjB7-604" value="" style="endArrow=classic;html=1;rounded=0;endSize=1;spacing=2;" edge="1" parent="70RoOoR1F2DfWVXdEjB7-716">
          <mxGeometry width="50" height="50" relative="1" as="geometry">
            <mxPoint x="1143.62" y="70" as="sourcePoint" />
            <mxPoint x="1173.62" y="49" as="targetPoint" />
          </mxGeometry>
        </mxCell>
        <mxCell id="70RoOoR1F2DfWVXdEjB7-605" value="" style="endArrow=classic;html=1;rounded=0;strokeWidth=2;movable=1;resizable=1;rotatable=1;deletable=1;editable=1;locked=0;connectable=1;" edge="1" parent="70RoOoR1F2DfWVXdEjB7-716">
          <mxGeometry width="50" height="50" relative="1" as="geometry">
            <mxPoint x="1081" y="70" as="sourcePoint" />
            <mxPoint x="1116" y="69.5" as="targetPoint" />
          </mxGeometry>
        </mxCell>
        <mxCell id="70RoOoR1F2DfWVXdEjB7-606" value="" style="endArrow=classic;html=1;rounded=0;endSize=1;spacing=2;" edge="1" parent="70RoOoR1F2DfWVXdEjB7-716">
          <mxGeometry width="50" height="50" relative="1" as="geometry">
            <mxPoint x="1172" y="70" as="sourcePoint" />
            <mxPoint x="1194.62" y="49" as="targetPoint" />
          </mxGeometry>
        </mxCell>
        <mxCell id="70RoOoR1F2DfWVXdEjB7-607" value="" style="endArrow=classic;html=1;rounded=0;endSize=1;" edge="1" parent="70RoOoR1F2DfWVXdEjB7-716">
          <mxGeometry width="50" height="50" relative="1" as="geometry">
            <mxPoint x="1161" y="70" as="sourcePoint" />
            <mxPoint x="1194.62" y="89" as="targetPoint" />
          </mxGeometry>
        </mxCell>
        <mxCell id="70RoOoR1F2DfWVXdEjB7-608" value="" style="endArrow=classic;html=1;rounded=0;endSize=1;" edge="1" parent="70RoOoR1F2DfWVXdEjB7-716">
          <mxGeometry width="50" height="50" relative="1" as="geometry">
            <mxPoint x="1151" y="80" as="sourcePoint" />
            <mxPoint x="1165.62" y="96" as="targetPoint" />
          </mxGeometry>
        </mxCell>
        <mxCell id="70RoOoR1F2DfWVXdEjB7-609" value="" style="endArrow=classic;html=1;jumpStyle=none;jumpSize=5;startSize=0;endSize=6;sourcePerimeterSpacing=0;targetPerimeterSpacing=0;sketch=1;curveFitting=1;jiggle=2;shadow=1;strokeColor=#525152;strokeWidth=3;curved=1;" edge="1" parent="70RoOoR1F2DfWVXdEjB7-716">
          <mxGeometry width="50" height="50" relative="1" as="geometry">
            <mxPoint x="1111.33" y="70.04999999999995" as="sourcePoint" />
            <mxPoint x="1200.67" y="71.04999999999995" as="targetPoint" />
            <Array as="points">
              <mxPoint x="1141.33" y="60.049999999999955" />
              <mxPoint x="1146.05" y="70.04999999999995" />
              <mxPoint x="1146.05" y="80.04999999999995" />
              <mxPoint x="1156.05" y="80.04999999999995" />
              <mxPoint x="1155.67" y="70.04999999999995" />
              <mxPoint x="1163.79" y="70.70423407343287" />
              <mxPoint x="1166.05" y="60.049999999999955" />
              <mxPoint x="1176.05" y="70.04999999999995" />
            </Array>
          </mxGeometry>
        </mxCell>
        <mxCell id="70RoOoR1F2DfWVXdEjB7-395" value="" style="endArrow=classic;html=1;rounded=0;strokeWidth=2;movable=1;resizable=1;rotatable=1;deletable=1;editable=1;locked=0;connectable=1;" edge="1" parent="70RoOoR1F2DfWVXdEjB7-716">
          <mxGeometry width="50" height="50" relative="1" as="geometry">
            <mxPoint x="664.5" y="68" as="sourcePoint" />
            <mxPoint x="699.5" y="68" as="targetPoint" />
          </mxGeometry>
        </mxCell>
        <mxCell id="70RoOoR1F2DfWVXdEjB7-396" value="" style="endArrow=classic;html=1;rounded=0;strokeWidth=2;movable=1;resizable=1;rotatable=1;deletable=1;editable=1;locked=0;connectable=1;" edge="1" parent="70RoOoR1F2DfWVXdEjB7-716">
          <mxGeometry width="50" height="50" relative="1" as="geometry">
            <mxPoint x="549.5" y="68" as="sourcePoint" />
            <mxPoint x="584.5" y="67.5" as="targetPoint" />
          </mxGeometry>
        </mxCell>
        <mxCell id="70RoOoR1F2DfWVXdEjB7-393" value="" style="rounded=1;whiteSpace=wrap;html=1;fillColor=#FFFF00;movable=0;resizable=0;rotatable=0;deletable=0;editable=0;locked=1;connectable=0;" vertex="1" parent="70RoOoR1F2DfWVXdEjB7-716">
          <mxGeometry x="585.25" y="48" width="80" height="40" as="geometry" />
        </mxCell>
        <mxCell id="70RoOoR1F2DfWVXdEjB7-394" value="" style="endArrow=classic;html=1;rounded=0;entryX=1;entryY=0.5;entryDx=0;entryDy=0;exitX=0;exitY=0.5;exitDx=0;exitDy=0;" edge="1" parent="70RoOoR1F2DfWVXdEjB7-716" source="70RoOoR1F2DfWVXdEjB7-393" target="70RoOoR1F2DfWVXdEjB7-393">
          <mxGeometry width="50" height="50" relative="1" as="geometry">
            <mxPoint x="625.25" y="88" as="sourcePoint" />
            <mxPoint x="675.25" y="38" as="targetPoint" />
          </mxGeometry>
        </mxCell>
        <mxCell id="70RoOoR1F2DfWVXdEjB7-321" value="" style="group;fillColor=none;movable=0;resizable=0;rotatable=0;deletable=0;editable=0;locked=1;connectable=0;" vertex="1" connectable="0" parent="70RoOoR1F2DfWVXdEjB7-716">
          <mxGeometry x="774.75" y="48" width="80" height="40" as="geometry" />
        </mxCell>
        <mxCell id="70RoOoR1F2DfWVXdEjB7-322" value="" style="rounded=1;whiteSpace=wrap;html=1;fillColor=#FF8000;movable=1;resizable=1;rotatable=1;deletable=1;editable=1;locked=0;connectable=1;" vertex="1" parent="70RoOoR1F2DfWVXdEjB7-321">
          <mxGeometry width="80" height="40" as="geometry" />
        </mxCell>
        <mxCell id="70RoOoR1F2DfWVXdEjB7-323" value="" style="curved=1;endArrow=classic;html=1;rounded=0;entryX=1;entryY=0.5;entryDx=0;entryDy=0;movable=1;resizable=1;rotatable=1;deletable=1;editable=1;locked=0;connectable=1;" edge="1" parent="70RoOoR1F2DfWVXdEjB7-321" target="70RoOoR1F2DfWVXdEjB7-322">
          <mxGeometry width="50" height="50" relative="1" as="geometry">
            <mxPoint y="20" as="sourcePoint" />
            <mxPoint x="80" y="70" as="targetPoint" />
            <Array as="points">
              <mxPoint x="10" y="20" />
              <mxPoint x="10" y="40" />
              <mxPoint x="30" y="10" />
              <mxPoint x="50" y="10" />
              <mxPoint x="40" y="20" />
              <mxPoint x="40" y="40" />
              <mxPoint x="70" y="20" />
            </Array>
          </mxGeometry>
        </mxCell>
        <mxCell id="70RoOoR1F2DfWVXdEjB7-324" value="" style="endArrow=classic;html=1;rounded=0;strokeWidth=2;movable=0;resizable=0;rotatable=0;deletable=0;editable=0;locked=1;connectable=0;" edge="1" parent="70RoOoR1F2DfWVXdEjB7-716">
          <mxGeometry width="50" height="50" relative="1" as="geometry">
            <mxPoint x="854.25" y="68" as="sourcePoint" />
            <mxPoint x="889.25" y="68" as="targetPoint" />
          </mxGeometry>
        </mxCell>
        <mxCell id="70RoOoR1F2DfWVXdEjB7-325" value="" style="endArrow=classic;html=1;rounded=0;strokeWidth=2;movable=0;resizable=0;rotatable=0;deletable=0;editable=0;locked=1;connectable=0;" edge="1" parent="70RoOoR1F2DfWVXdEjB7-716">
          <mxGeometry width="50" height="50" relative="1" as="geometry">
            <mxPoint x="739.25" y="68" as="sourcePoint" />
            <mxPoint x="774.25" y="67.5" as="targetPoint" />
          </mxGeometry>
        </mxCell>
        <mxCell id="70RoOoR1F2DfWVXdEjB7-536" value="" style="endArrow=classic;html=1;rounded=0;strokeWidth=2;movable=1;resizable=1;rotatable=1;deletable=1;editable=1;locked=0;connectable=1;" edge="1" parent="70RoOoR1F2DfWVXdEjB7-716">
          <mxGeometry width="50" height="50" relative="1" as="geometry">
            <mxPoint x="345.69000000000005" y="66" as="sourcePoint" />
            <mxPoint x="380.69000000000005" y="65.5" as="targetPoint" />
          </mxGeometry>
        </mxCell>
        <mxCell id="70RoOoR1F2DfWVXdEjB7-429" value="NOT Ergonomic, NOT Functional, Robust" style="text;html=1;strokeColor=none;fillColor=none;align=center;verticalAlign=middle;whiteSpace=wrap;rounded=0;movable=1;resizable=1;rotatable=1;deletable=1;editable=1;locked=0;connectable=1;container=0;" vertex="1" parent="70RoOoR1F2DfWVXdEjB7-716">
          <mxGeometry x="200.75" y="8" width="95.75" height="30" as="geometry" />
        </mxCell>
        <mxCell id="70RoOoR1F2DfWVXdEjB7-427" value="" style="endArrow=classic;html=1;rounded=0;strokeWidth=2;movable=1;resizable=1;rotatable=1;deletable=1;editable=1;locked=0;connectable=1;" edge="1" parent="70RoOoR1F2DfWVXdEjB7-716">
          <mxGeometry width="50" height="50" relative="1" as="geometry">
            <mxPoint x="285" y="68" as="sourcePoint" />
            <mxPoint x="320" y="68" as="targetPoint" />
          </mxGeometry>
        </mxCell>
        <mxCell id="70RoOoR1F2DfWVXdEjB7-428" value="" style="endArrow=classic;html=1;rounded=0;strokeWidth=2;movable=1;resizable=1;rotatable=1;deletable=1;editable=1;locked=0;connectable=1;" edge="1" parent="70RoOoR1F2DfWVXdEjB7-716">
          <mxGeometry width="50" height="50" relative="1" as="geometry">
            <mxPoint x="170" y="68" as="sourcePoint" />
            <mxPoint x="205" y="67.5" as="targetPoint" />
          </mxGeometry>
        </mxCell>
        <mxCell id="70RoOoR1F2DfWVXdEjB7-574" value="" style="shape=trapezoid;perimeter=trapezoidPerimeter;whiteSpace=wrap;html=1;fixedSize=1;rotation=90;size=17.5;fillColor=#FF00FF;container=0;movable=1;resizable=1;rotatable=1;deletable=1;editable=1;locked=0;connectable=1;" vertex="1" parent="70RoOoR1F2DfWVXdEjB7-716">
          <mxGeometry x="51.75" y="35.5" width="45" height="80" as="geometry" />
        </mxCell>
        <mxCell id="70RoOoR1F2DfWVXdEjB7-575" value="" style="endArrow=classic;html=1;rounded=0;strokeWidth=2;movable=1;resizable=1;rotatable=1;deletable=1;editable=1;locked=0;connectable=1;" edge="1" parent="70RoOoR1F2DfWVXdEjB7-716">
          <mxGeometry width="50" height="50" relative="1" as="geometry">
            <mxPoint x="114.25" y="75.5" as="sourcePoint" />
            <mxPoint x="149.25" y="75.5" as="targetPoint" />
          </mxGeometry>
        </mxCell>
        <mxCell id="70RoOoR1F2DfWVXdEjB7-576" value="" style="endArrow=classic;html=1;rounded=0;entryX=1;entryY=0.5;entryDx=0;entryDy=0;exitX=0;exitY=0.5;exitDx=0;exitDy=0;movable=1;resizable=1;rotatable=1;deletable=1;editable=1;locked=0;connectable=1;" edge="1" parent="70RoOoR1F2DfWVXdEjB7-716">
          <mxGeometry width="50" height="50" relative="1" as="geometry">
            <mxPoint x="35" y="75.5" as="sourcePoint" />
            <mxPoint x="115" y="75.5" as="targetPoint" />
          </mxGeometry>
        </mxCell>
        <mxCell id="70RoOoR1F2DfWVXdEjB7-577" value="" style="endArrow=classic;html=1;rounded=0;strokeWidth=2;movable=1;resizable=1;rotatable=1;deletable=1;editable=1;locked=0;connectable=1;" edge="1" parent="70RoOoR1F2DfWVXdEjB7-716">
          <mxGeometry width="50" height="50" relative="1" as="geometry">
            <mxPoint y="76" as="sourcePoint" />
            <mxPoint x="35" y="75.5" as="targetPoint" />
          </mxGeometry>
        </mxCell>
        <mxCell id="70RoOoR1F2DfWVXdEjB7-756" value="" style="group" vertex="1" connectable="0" parent="70RoOoR1F2DfWVXdEjB7-716">
          <mxGeometry x="914" y="40.094234073432794" width="149.25" height="51.905765926567206" as="geometry" />
        </mxCell>
        <mxCell id="70RoOoR1F2DfWVXdEjB7-476" value="" style="endArrow=classic;html=1;rounded=0;strokeWidth=2;movable=1;resizable=1;rotatable=1;deletable=1;editable=1;locked=0;connectable=1;" edge="1" parent="70RoOoR1F2DfWVXdEjB7-756">
          <mxGeometry width="50" height="50" relative="1" as="geometry">
            <mxPoint x="114.25" y="25.405765926567206" as="sourcePoint" />
            <mxPoint x="149.25" y="25.405765926567206" as="targetPoint" />
          </mxGeometry>
        </mxCell>
        <mxCell id="70RoOoR1F2DfWVXdEjB7-482" value="" style="ellipse;shape=cloud;whiteSpace=wrap;html=1;rotation=2;fillColor=#FF0080;container=0;" vertex="1" parent="70RoOoR1F2DfWVXdEjB7-756">
          <mxGeometry x="20" y="1.9057659265672058" width="110" height="45" as="geometry" />
        </mxCell>
        <mxCell id="70RoOoR1F2DfWVXdEjB7-490" value="" style="endArrow=classic;html=1;rounded=0;endSize=1;spacing=2;" edge="1" parent="70RoOoR1F2DfWVXdEjB7-756">
          <mxGeometry width="50" height="50" relative="1" as="geometry">
            <mxPoint x="62.620000000000005" y="25.905765926567206" as="sourcePoint" />
            <mxPoint x="92.62" y="4.905765926567206" as="targetPoint" />
          </mxGeometry>
        </mxCell>
        <mxCell id="70RoOoR1F2DfWVXdEjB7-478" value="" style="endArrow=classic;html=1;rounded=0;strokeWidth=2;movable=1;resizable=1;rotatable=1;deletable=1;editable=1;locked=0;connectable=1;" edge="1" parent="70RoOoR1F2DfWVXdEjB7-756">
          <mxGeometry width="50" height="50" relative="1" as="geometry">
            <mxPoint y="25.905765926567206" as="sourcePoint" />
            <mxPoint x="35" y="25.405765926567206" as="targetPoint" />
          </mxGeometry>
        </mxCell>
        <mxCell id="70RoOoR1F2DfWVXdEjB7-486" value="" style="endArrow=classic;html=1;rounded=0;entryX=0.875;entryY=0.5;entryDx=0;entryDy=0;entryPerimeter=0;exitX=0.16;exitY=0.55;exitDx=0;exitDy=0;exitPerimeter=0;jumpStyle=none;jumpSize=5;startSize=0;endSize=6;sourcePerimeterSpacing=0;targetPerimeterSpacing=0;" edge="1" parent="70RoOoR1F2DfWVXdEjB7-756" source="70RoOoR1F2DfWVXdEjB7-482" target="70RoOoR1F2DfWVXdEjB7-482">
          <mxGeometry width="50" height="50" relative="1" as="geometry">
            <mxPoint x="44.620000000000005" y="24.285765926567088" as="sourcePoint" />
            <mxPoint x="94.62" y="24.285765926567088" as="targetPoint" />
          </mxGeometry>
        </mxCell>
        <mxCell id="70RoOoR1F2DfWVXdEjB7-487" value="" style="endArrow=classic;html=1;rounded=0;endSize=1;spacing=2;" edge="1" parent="70RoOoR1F2DfWVXdEjB7-756">
          <mxGeometry width="50" height="50" relative="1" as="geometry">
            <mxPoint x="91" y="25.905765926567206" as="sourcePoint" />
            <mxPoint x="113.61999999999989" y="4.905765926567206" as="targetPoint" />
          </mxGeometry>
        </mxCell>
        <mxCell id="70RoOoR1F2DfWVXdEjB7-488" value="" style="endArrow=classic;html=1;rounded=0;endSize=1;" edge="1" parent="70RoOoR1F2DfWVXdEjB7-756">
          <mxGeometry width="50" height="50" relative="1" as="geometry">
            <mxPoint x="84.62" y="25.905765926567206" as="sourcePoint" />
            <mxPoint x="113.61999999999989" y="44.905765926567206" as="targetPoint" />
          </mxGeometry>
        </mxCell>
        <mxCell id="70RoOoR1F2DfWVXdEjB7-489" value="" style="endArrow=classic;html=1;rounded=0;endSize=1;" edge="1" parent="70RoOoR1F2DfWVXdEjB7-756">
          <mxGeometry width="50" height="50" relative="1" as="geometry">
            <mxPoint x="54.620000000000005" y="25.905765926567206" as="sourcePoint" />
            <mxPoint x="84.62" y="51.905765926567206" as="targetPoint" />
          </mxGeometry>
        </mxCell>
        <mxCell id="70RoOoR1F2DfWVXdEjB7-804" value="" style="group" vertex="1" connectable="0" parent="WIyWlLk6GJQsqaUBKTNV-1">
          <mxGeometry x="-476.99" y="410" width="150" height="45" as="geometry" />
        </mxCell>
        <mxCell id="70RoOoR1F2DfWVXdEjB7-800" value="" style="shape=trapezoid;perimeter=trapezoidPerimeter;whiteSpace=wrap;html=1;fixedSize=1;rotation=90;size=17.5;fillColor=#7F00FF;container=0;movable=1;resizable=1;rotatable=1;deletable=1;editable=1;locked=0;connectable=1;" vertex="1" parent="70RoOoR1F2DfWVXdEjB7-804">
          <mxGeometry x="53" y="-17.5" width="45" height="80" as="geometry" />
        </mxCell>
        <mxCell id="70RoOoR1F2DfWVXdEjB7-801" value="" style="curved=1;endArrow=classic;html=1;rounded=0;entryX=1;entryY=0.5;entryDx=0;entryDy=0;movable=1;resizable=1;rotatable=1;deletable=1;editable=1;locked=0;connectable=1;strokeColor=#FFFFFF;" edge="1" parent="70RoOoR1F2DfWVXdEjB7-804">
          <mxGeometry width="50" height="50" relative="1" as="geometry">
            <mxPoint x="35.5" y="22.5" as="sourcePoint" />
            <mxPoint x="115.5" y="22.5" as="targetPoint" />
            <Array as="points">
              <mxPoint x="45.5" y="22.5" />
              <mxPoint x="45.5" y="42.5" />
              <mxPoint x="65.5" y="12.5" />
              <mxPoint x="85.5" y="12.5" />
              <mxPoint x="75.5" y="22.5" />
              <mxPoint x="80" y="32.5" />
              <mxPoint x="105.5" y="22.5" />
            </Array>
          </mxGeometry>
        </mxCell>
        <mxCell id="70RoOoR1F2DfWVXdEjB7-802" value="" style="endArrow=classic;html=1;rounded=0;strokeWidth=2;movable=1;resizable=1;rotatable=1;deletable=1;editable=1;locked=0;connectable=1;" edge="1" parent="70RoOoR1F2DfWVXdEjB7-804">
          <mxGeometry width="50" height="50" relative="1" as="geometry">
            <mxPoint x="115" y="22.5" as="sourcePoint" />
            <mxPoint x="150" y="22.5" as="targetPoint" />
          </mxGeometry>
        </mxCell>
        <mxCell id="70RoOoR1F2DfWVXdEjB7-803" value="" style="endArrow=classic;html=1;rounded=0;strokeWidth=2;movable=1;resizable=1;rotatable=1;deletable=1;editable=1;locked=0;connectable=1;" edge="1" parent="70RoOoR1F2DfWVXdEjB7-804">
          <mxGeometry width="50" height="50" relative="1" as="geometry">
            <mxPoint y="22.5" as="sourcePoint" />
            <mxPoint x="35" y="22" as="targetPoint" />
          </mxGeometry>
        </mxCell>
        <mxCell id="70RoOoR1F2DfWVXdEjB7-805" value="" style="group" vertex="1" connectable="0" parent="WIyWlLk6GJQsqaUBKTNV-1">
          <mxGeometry x="-480" y="230" width="150" height="40" as="geometry" />
        </mxCell>
        <mxCell id="70RoOoR1F2DfWVXdEjB7-173" value="" style="endArrow=classic;html=1;rounded=0;strokeWidth=2;movable=1;resizable=1;rotatable=1;deletable=1;editable=1;locked=0;connectable=1;" edge="1" parent="70RoOoR1F2DfWVXdEjB7-805">
          <mxGeometry width="50" height="50" relative="1" as="geometry">
            <mxPoint x="115" y="21" as="sourcePoint" />
            <mxPoint x="150" y="21" as="targetPoint" />
          </mxGeometry>
        </mxCell>
        <mxCell id="70RoOoR1F2DfWVXdEjB7-174" value="" style="endArrow=classic;html=1;rounded=0;strokeWidth=2;movable=1;resizable=1;rotatable=1;deletable=1;editable=1;locked=0;connectable=1;" edge="1" parent="70RoOoR1F2DfWVXdEjB7-805">
          <mxGeometry width="50" height="50" relative="1" as="geometry">
            <mxPoint y="21" as="sourcePoint" />
            <mxPoint x="35" y="20.5" as="targetPoint" />
          </mxGeometry>
        </mxCell>
        <mxCell id="70RoOoR1F2DfWVXdEjB7-171" value="" style="rounded=1;whiteSpace=wrap;html=1;fillColor=#FF8000;movable=1;resizable=1;rotatable=1;deletable=1;editable=1;locked=0;connectable=1;container=0;" vertex="1" parent="70RoOoR1F2DfWVXdEjB7-805">
          <mxGeometry x="35" width="80" height="40" as="geometry" />
        </mxCell>
        <mxCell id="70RoOoR1F2DfWVXdEjB7-172" value="" style="curved=1;endArrow=classic;html=1;rounded=0;entryX=1;entryY=0.5;entryDx=0;entryDy=0;movable=1;resizable=1;rotatable=1;deletable=1;editable=1;locked=0;connectable=1;" edge="1" parent="70RoOoR1F2DfWVXdEjB7-805" target="70RoOoR1F2DfWVXdEjB7-171">
          <mxGeometry width="50" height="50" relative="1" as="geometry">
            <mxPoint x="35" y="20" as="sourcePoint" />
            <mxPoint x="115" y="70" as="targetPoint" />
            <Array as="points">
              <mxPoint x="45" y="20" />
              <mxPoint x="45" y="40" />
              <mxPoint x="65" y="10" />
              <mxPoint x="85" y="10" />
              <mxPoint x="75" y="20" />
              <mxPoint x="75" y="40" />
              <mxPoint x="105" y="20" />
            </Array>
          </mxGeometry>
        </mxCell>
        <mxCell id="70RoOoR1F2DfWVXdEjB7-806" value="" style="ellipse;whiteSpace=wrap;html=1;strokeWidth=2;fillWeight=2;hachureGap=8;fillColor=#990000;fillStyle=dots;sketch=1;shadow=1;gradientColor=#B3B3B3;container=0;" vertex="1" parent="WIyWlLk6GJQsqaUBKTNV-1">
          <mxGeometry x="-448" y="287.5" width="90" height="45" as="geometry" />
        </mxCell>
        <mxCell id="70RoOoR1F2DfWVXdEjB7-807" value="" style="endArrow=classic;html=1;rounded=0;strokeWidth=2;movable=1;resizable=1;rotatable=1;deletable=1;editable=1;locked=0;connectable=1;" edge="1" parent="WIyWlLk6GJQsqaUBKTNV-1">
          <mxGeometry width="50" height="50" relative="1" as="geometry">
            <mxPoint x="-358" y="310.5" as="sourcePoint" />
            <mxPoint x="-323" y="310.5" as="targetPoint" />
          </mxGeometry>
        </mxCell>
        <mxCell id="70RoOoR1F2DfWVXdEjB7-808" value="" style="endArrow=classic;html=1;rounded=0;strokeWidth=2;movable=1;resizable=1;rotatable=1;deletable=1;editable=1;locked=0;connectable=1;" edge="1" parent="WIyWlLk6GJQsqaUBKTNV-1">
          <mxGeometry width="50" height="50" relative="1" as="geometry">
            <mxPoint x="-482.6199999999999" y="310.5" as="sourcePoint" />
            <mxPoint x="-447.6199999999999" y="310" as="targetPoint" />
          </mxGeometry>
        </mxCell>
        <mxCell id="70RoOoR1F2DfWVXdEjB7-818" value="" style="group" vertex="1" connectable="0" parent="WIyWlLk6GJQsqaUBKTNV-1">
          <mxGeometry x="-479.9982658381434" y="949.55" width="149.25" height="51.905765926567256" as="geometry" />
        </mxCell>
        <mxCell id="70RoOoR1F2DfWVXdEjB7-809" value="" style="endArrow=classic;html=1;rounded=0;strokeWidth=2;movable=1;resizable=1;rotatable=1;deletable=1;editable=1;locked=0;connectable=1;" edge="1" parent="70RoOoR1F2DfWVXdEjB7-818">
          <mxGeometry width="50" height="50" relative="1" as="geometry">
            <mxPoint x="114.25" y="25.405765926567256" as="sourcePoint" />
            <mxPoint x="149.25" y="25.405765926567256" as="targetPoint" />
          </mxGeometry>
        </mxCell>
        <mxCell id="70RoOoR1F2DfWVXdEjB7-810" value="" style="ellipse;shape=cloud;whiteSpace=wrap;html=1;rotation=2;fillColor=#B3B3B3;container=0;" vertex="1" parent="70RoOoR1F2DfWVXdEjB7-818">
          <mxGeometry x="20" y="1.9057659265672555" width="110" height="45" as="geometry" />
        </mxCell>
        <mxCell id="70RoOoR1F2DfWVXdEjB7-811" value="" style="endArrow=classic;html=1;rounded=0;endSize=1;spacing=2;" edge="1" parent="70RoOoR1F2DfWVXdEjB7-818">
          <mxGeometry width="50" height="50" relative="1" as="geometry">
            <mxPoint x="62.61999999999989" y="25.905765926567256" as="sourcePoint" />
            <mxPoint x="92.61999999999989" y="4.9057659265672555" as="targetPoint" />
          </mxGeometry>
        </mxCell>
        <mxCell id="70RoOoR1F2DfWVXdEjB7-812" value="" style="endArrow=classic;html=1;rounded=0;strokeWidth=2;movable=1;resizable=1;rotatable=1;deletable=1;editable=1;locked=0;connectable=1;" edge="1" parent="70RoOoR1F2DfWVXdEjB7-818">
          <mxGeometry width="50" height="50" relative="1" as="geometry">
            <mxPoint y="25.905765926567256" as="sourcePoint" />
            <mxPoint x="35" y="25.405765926567256" as="targetPoint" />
          </mxGeometry>
        </mxCell>
        <mxCell id="70RoOoR1F2DfWVXdEjB7-813" value="" style="endArrow=classic;html=1;rounded=0;endSize=1;spacing=2;" edge="1" parent="70RoOoR1F2DfWVXdEjB7-818">
          <mxGeometry width="50" height="50" relative="1" as="geometry">
            <mxPoint x="91" y="25.905765926567256" as="sourcePoint" />
            <mxPoint x="113.61999999999989" y="4.9057659265672555" as="targetPoint" />
          </mxGeometry>
        </mxCell>
        <mxCell id="70RoOoR1F2DfWVXdEjB7-814" value="" style="endArrow=classic;html=1;rounded=0;endSize=1;" edge="1" parent="70RoOoR1F2DfWVXdEjB7-818">
          <mxGeometry width="50" height="50" relative="1" as="geometry">
            <mxPoint x="80" y="25.905765926567256" as="sourcePoint" />
            <mxPoint x="113.61999999999989" y="44.905765926567256" as="targetPoint" />
          </mxGeometry>
        </mxCell>
        <mxCell id="70RoOoR1F2DfWVXdEjB7-815" value="" style="endArrow=classic;html=1;rounded=0;endSize=1;" edge="1" parent="70RoOoR1F2DfWVXdEjB7-818">
          <mxGeometry width="50" height="50" relative="1" as="geometry">
            <mxPoint x="70" y="35.905765926567256" as="sourcePoint" />
            <mxPoint x="84.61999999999989" y="51.905765926567256" as="targetPoint" />
          </mxGeometry>
        </mxCell>
        <mxCell id="70RoOoR1F2DfWVXdEjB7-816" value="" style="endArrow=classic;html=1;jumpStyle=none;jumpSize=5;startSize=0;endSize=6;sourcePerimeterSpacing=0;targetPerimeterSpacing=0;sketch=1;curveFitting=1;jiggle=2;shadow=1;strokeColor=#525152;strokeWidth=3;curved=1;" edge="1" parent="70RoOoR1F2DfWVXdEjB7-818">
          <mxGeometry width="50" height="50" relative="1" as="geometry">
            <mxPoint x="30.329999999999927" y="25.95576592656721" as="sourcePoint" />
            <mxPoint x="119.67000000000007" y="26.95576592656721" as="targetPoint" />
            <Array as="points">
              <mxPoint x="60.32999999999993" y="15.95576592656721" />
              <mxPoint x="65.04999999999995" y="25.95576592656721" />
              <mxPoint x="65.04999999999995" y="35.95576592656721" />
              <mxPoint x="75.04999999999995" y="35.95576592656721" />
              <mxPoint x="74.67000000000007" y="25.95576592656721" />
              <mxPoint x="82.78999999999996" y="26.610000000000127" />
              <mxPoint x="85.04999999999995" y="15.95576592656721" />
              <mxPoint x="95.04999999999995" y="25.95576592656721" />
            </Array>
          </mxGeometry>
        </mxCell>
        <mxCell id="70RoOoR1F2DfWVXdEjB7-824" value="" style="group" vertex="1" connectable="0" parent="WIyWlLk6GJQsqaUBKTNV-1">
          <mxGeometry x="-480.25" y="840" width="150" height="40" as="geometry" />
        </mxCell>
        <mxCell id="70RoOoR1F2DfWVXdEjB7-820" value="" style="endArrow=classic;html=1;rounded=0;strokeWidth=2;movable=1;resizable=1;rotatable=1;deletable=1;editable=1;locked=0;connectable=1;" edge="1" parent="70RoOoR1F2DfWVXdEjB7-824">
          <mxGeometry width="50" height="50" relative="1" as="geometry">
            <mxPoint x="115" y="20" as="sourcePoint" />
            <mxPoint x="150" y="20" as="targetPoint" />
          </mxGeometry>
        </mxCell>
        <mxCell id="70RoOoR1F2DfWVXdEjB7-821" value="" style="endArrow=classic;html=1;rounded=0;strokeWidth=2;movable=1;resizable=1;rotatable=1;deletable=1;editable=1;locked=0;connectable=1;" edge="1" parent="70RoOoR1F2DfWVXdEjB7-824">
          <mxGeometry width="50" height="50" relative="1" as="geometry">
            <mxPoint y="20" as="sourcePoint" />
            <mxPoint x="35" y="19.5" as="targetPoint" />
          </mxGeometry>
        </mxCell>
        <mxCell id="70RoOoR1F2DfWVXdEjB7-822" value="" style="rounded=1;whiteSpace=wrap;html=1;fillColor=#FFFF00;movable=0;resizable=0;rotatable=0;deletable=0;editable=0;locked=1;connectable=0;" vertex="1" parent="70RoOoR1F2DfWVXdEjB7-824">
          <mxGeometry x="35.75" width="80" height="40" as="geometry" />
        </mxCell>
        <mxCell id="70RoOoR1F2DfWVXdEjB7-823" value="" style="endArrow=classic;html=1;rounded=0;entryX=1;entryY=0.5;entryDx=0;entryDy=0;exitX=0;exitY=0.5;exitDx=0;exitDy=0;" edge="1" parent="70RoOoR1F2DfWVXdEjB7-824" source="70RoOoR1F2DfWVXdEjB7-822" target="70RoOoR1F2DfWVXdEjB7-822">
          <mxGeometry width="50" height="50" relative="1" as="geometry">
            <mxPoint x="75.75" y="40" as="sourcePoint" />
            <mxPoint x="125.75" y="-10" as="targetPoint" />
          </mxGeometry>
        </mxCell>
        <mxCell id="70RoOoR1F2DfWVXdEjB7-825" value="&lt;font style=&quot;font-size: 18px;&quot;&gt;func() (any,error)&lt;/font&gt;" style="rounded=1;whiteSpace=wrap;html=1;fontSize=12;glass=0;strokeWidth=1;shadow=0;fillColor=#0000FF;fontColor=#FFFFFF;" vertex="1" parent="WIyWlLk6GJQsqaUBKTNV-1">
          <mxGeometry x="-644.75" y="1150" width="160" height="40" as="geometry" />
        </mxCell>
        <mxCell id="70RoOoR1F2DfWVXdEjB7-829" value="&lt;font style=&quot;font-size: 18px;&quot;&gt;func(context.Context) (any,error)&lt;/font&gt;" style="rounded=1;whiteSpace=wrap;html=1;fontSize=12;glass=0;strokeWidth=1;shadow=0;fillColor=#00FFFF;" vertex="1" parent="WIyWlLk6GJQsqaUBKTNV-1">
          <mxGeometry x="-764.5" y="1050" width="280" height="40" as="geometry" />
        </mxCell>
        <mxCell id="70RoOoR1F2DfWVXdEjB7-830" value="&lt;font style=&quot;font-size: 18px;&quot;&gt;func(context.Context) any&lt;/font&gt;" style="rounded=1;whiteSpace=wrap;html=1;fontSize=12;glass=0;strokeWidth=1;shadow=0;fillColor=#00FF00;" vertex="1" parent="WIyWlLk6GJQsqaUBKTNV-1">
          <mxGeometry x="-714.5" y="1100" width="229.5" height="40" as="geometry" />
        </mxCell>
        <mxCell id="70RoOoR1F2DfWVXdEjB7-831" value="" style="group;movable=1;resizable=1;rotatable=1;deletable=1;editable=1;locked=0;connectable=1;" vertex="1" connectable="0" parent="WIyWlLk6GJQsqaUBKTNV-1">
          <mxGeometry x="-480.25" y="1050" width="150" height="40" as="geometry" />
        </mxCell>
        <mxCell id="70RoOoR1F2DfWVXdEjB7-832" value="" style="group" vertex="1" connectable="0" parent="70RoOoR1F2DfWVXdEjB7-831">
          <mxGeometry x="35.75" width="80" height="40" as="geometry" />
        </mxCell>
        <mxCell id="70RoOoR1F2DfWVXdEjB7-833" value="" style="rounded=1;whiteSpace=wrap;html=1;fillColor=#FFFF00;movable=0;resizable=0;rotatable=0;deletable=0;editable=0;locked=1;connectable=0;" vertex="1" parent="70RoOoR1F2DfWVXdEjB7-832">
          <mxGeometry width="80" height="40" as="geometry" />
        </mxCell>
        <mxCell id="70RoOoR1F2DfWVXdEjB7-834" value="" style="endArrow=classic;html=1;rounded=0;entryX=1;entryY=0.5;entryDx=0;entryDy=0;exitX=0;exitY=0.5;exitDx=0;exitDy=0;" edge="1" parent="70RoOoR1F2DfWVXdEjB7-832" source="70RoOoR1F2DfWVXdEjB7-833" target="70RoOoR1F2DfWVXdEjB7-833">
          <mxGeometry width="50" height="50" relative="1" as="geometry">
            <mxPoint x="40" y="40" as="sourcePoint" />
            <mxPoint x="90" y="-10" as="targetPoint" />
          </mxGeometry>
        </mxCell>
        <mxCell id="70RoOoR1F2DfWVXdEjB7-835" value="" style="endArrow=classic;html=1;rounded=0;strokeWidth=2;movable=1;resizable=1;rotatable=1;deletable=1;editable=1;locked=0;connectable=1;" edge="1" parent="70RoOoR1F2DfWVXdEjB7-831">
          <mxGeometry width="50" height="50" relative="1" as="geometry">
            <mxPoint x="115" y="20" as="sourcePoint" />
            <mxPoint x="150" y="20" as="targetPoint" />
          </mxGeometry>
        </mxCell>
        <mxCell id="70RoOoR1F2DfWVXdEjB7-836" value="" style="endArrow=classic;html=1;rounded=0;strokeWidth=2;movable=1;resizable=1;rotatable=1;deletable=1;editable=1;locked=0;connectable=1;" edge="1" parent="70RoOoR1F2DfWVXdEjB7-831">
          <mxGeometry width="50" height="50" relative="1" as="geometry">
            <mxPoint y="20" as="sourcePoint" />
            <mxPoint x="35" y="19.5" as="targetPoint" />
          </mxGeometry>
        </mxCell>
        <mxCell id="70RoOoR1F2DfWVXdEjB7-837" value="" style="group;movable=1;resizable=1;rotatable=1;deletable=1;editable=1;locked=0;connectable=1;" vertex="1" connectable="0" parent="WIyWlLk6GJQsqaUBKTNV-1">
          <mxGeometry x="-479.5" y="1100" width="150" height="40" as="geometry" />
        </mxCell>
        <mxCell id="70RoOoR1F2DfWVXdEjB7-838" value="" style="group" vertex="1" connectable="0" parent="70RoOoR1F2DfWVXdEjB7-837">
          <mxGeometry x="35.75" width="80" height="40" as="geometry" />
        </mxCell>
        <mxCell id="70RoOoR1F2DfWVXdEjB7-839" value="" style="rounded=1;whiteSpace=wrap;html=1;fillColor=#FFFF00;movable=0;resizable=0;rotatable=0;deletable=0;editable=0;locked=1;connectable=0;" vertex="1" parent="70RoOoR1F2DfWVXdEjB7-838">
          <mxGeometry width="80" height="40" as="geometry" />
        </mxCell>
        <mxCell id="70RoOoR1F2DfWVXdEjB7-840" value="" style="endArrow=classic;html=1;rounded=0;entryX=1;entryY=0.5;entryDx=0;entryDy=0;exitX=0;exitY=0.5;exitDx=0;exitDy=0;" edge="1" parent="70RoOoR1F2DfWVXdEjB7-838" source="70RoOoR1F2DfWVXdEjB7-839" target="70RoOoR1F2DfWVXdEjB7-839">
          <mxGeometry width="50" height="50" relative="1" as="geometry">
            <mxPoint x="40" y="40" as="sourcePoint" />
            <mxPoint x="90" y="-10" as="targetPoint" />
          </mxGeometry>
        </mxCell>
        <mxCell id="70RoOoR1F2DfWVXdEjB7-841" value="" style="endArrow=classic;html=1;rounded=0;strokeWidth=2;movable=1;resizable=1;rotatable=1;deletable=1;editable=1;locked=0;connectable=1;" edge="1" parent="70RoOoR1F2DfWVXdEjB7-837">
          <mxGeometry width="50" height="50" relative="1" as="geometry">
            <mxPoint x="115" y="20" as="sourcePoint" />
            <mxPoint x="150" y="20" as="targetPoint" />
          </mxGeometry>
        </mxCell>
        <mxCell id="70RoOoR1F2DfWVXdEjB7-842" value="" style="endArrow=classic;html=1;rounded=0;strokeWidth=2;movable=1;resizable=1;rotatable=1;deletable=1;editable=1;locked=0;connectable=1;" edge="1" parent="70RoOoR1F2DfWVXdEjB7-837">
          <mxGeometry width="50" height="50" relative="1" as="geometry">
            <mxPoint y="20" as="sourcePoint" />
            <mxPoint x="35" y="19.5" as="targetPoint" />
          </mxGeometry>
        </mxCell>
        <mxCell id="70RoOoR1F2DfWVXdEjB7-843" value="" style="group;movable=1;resizable=1;rotatable=1;deletable=1;editable=1;locked=0;connectable=1;" vertex="1" connectable="0" parent="WIyWlLk6GJQsqaUBKTNV-1">
          <mxGeometry x="-479.5" y="1150" width="150" height="40" as="geometry" />
        </mxCell>
        <mxCell id="70RoOoR1F2DfWVXdEjB7-844" value="" style="group" vertex="1" connectable="0" parent="70RoOoR1F2DfWVXdEjB7-843">
          <mxGeometry x="35.75" width="80" height="40" as="geometry" />
        </mxCell>
        <mxCell id="70RoOoR1F2DfWVXdEjB7-845" value="" style="rounded=1;whiteSpace=wrap;html=1;fillColor=#FFFF00;movable=0;resizable=0;rotatable=0;deletable=0;editable=0;locked=1;connectable=0;" vertex="1" parent="70RoOoR1F2DfWVXdEjB7-844">
          <mxGeometry width="80" height="40" as="geometry" />
        </mxCell>
        <mxCell id="70RoOoR1F2DfWVXdEjB7-846" value="" style="endArrow=classic;html=1;rounded=0;entryX=1;entryY=0.5;entryDx=0;entryDy=0;exitX=0;exitY=0.5;exitDx=0;exitDy=0;" edge="1" parent="70RoOoR1F2DfWVXdEjB7-844" source="70RoOoR1F2DfWVXdEjB7-845" target="70RoOoR1F2DfWVXdEjB7-845">
          <mxGeometry width="50" height="50" relative="1" as="geometry">
            <mxPoint x="40" y="40" as="sourcePoint" />
            <mxPoint x="90" y="-10" as="targetPoint" />
          </mxGeometry>
        </mxCell>
        <mxCell id="70RoOoR1F2DfWVXdEjB7-847" value="" style="endArrow=classic;html=1;rounded=0;strokeWidth=2;movable=1;resizable=1;rotatable=1;deletable=1;editable=1;locked=0;connectable=1;" edge="1" parent="70RoOoR1F2DfWVXdEjB7-843">
          <mxGeometry width="50" height="50" relative="1" as="geometry">
            <mxPoint x="115" y="20" as="sourcePoint" />
            <mxPoint x="150" y="20" as="targetPoint" />
          </mxGeometry>
        </mxCell>
        <mxCell id="70RoOoR1F2DfWVXdEjB7-848" value="" style="endArrow=classic;html=1;rounded=0;strokeWidth=2;movable=1;resizable=1;rotatable=1;deletable=1;editable=1;locked=0;connectable=1;" edge="1" parent="70RoOoR1F2DfWVXdEjB7-843">
          <mxGeometry width="50" height="50" relative="1" as="geometry">
            <mxPoint y="20" as="sourcePoint" />
            <mxPoint x="35" y="19.5" as="targetPoint" />
          </mxGeometry>
        </mxCell>
        <mxCell id="70RoOoR1F2DfWVXdEjB7-849" value="&lt;font style=&quot;font-size: 18px;&quot;&gt;func(context.Context) any&lt;/font&gt;" style="rounded=1;whiteSpace=wrap;html=1;fontSize=12;glass=0;strokeWidth=1;shadow=0;fillColor=#00FF00;" vertex="1" parent="WIyWlLk6GJQsqaUBKTNV-1">
          <mxGeometry x="-324.99" y="1100" width="229.5" height="40" as="geometry" />
        </mxCell>
        <mxCell id="70RoOoR1F2DfWVXdEjB7-850" value="&lt;font style=&quot;font-size: 18px;&quot;&gt;func(context.Context) (any,error)&lt;/font&gt;" style="rounded=1;whiteSpace=wrap;html=1;fontSize=12;glass=0;strokeWidth=1;shadow=0;fillColor=#00FFFF;" vertex="1" parent="WIyWlLk6GJQsqaUBKTNV-1">
          <mxGeometry x="-325.75" y="1049" width="280" height="40" as="geometry" />
        </mxCell>
        <mxCell id="70RoOoR1F2DfWVXdEjB7-851" value="&lt;font style=&quot;font-size: 18px;&quot;&gt;func() (any,error)&lt;/font&gt;" style="rounded=1;whiteSpace=wrap;html=1;fontSize=12;glass=0;strokeWidth=1;shadow=0;fillColor=#0000FF;fontColor=#FFFFFF;" vertex="1" parent="WIyWlLk6GJQsqaUBKTNV-1">
          <mxGeometry x="-324.99" y="1150" width="160" height="40" as="geometry" />
        </mxCell>
      </root>
    </mxGraphModel>
  </diagram>
</mxfile>
